<svg width="37" height="49" viewBox="0 0 37 49" fill="none" xmlns="http://www.w3.org/2000/svg">
<path d="M14.04 36.4914C14.22 37.5714 15.96 45.7914 15.9 45.9114C15.6 47.0514 13.8 47.3514 12.84 47.5914C11.64 47.8914 6.84 48.6714 5.76 48.5514C3.06 48.1914 2.82 43.6314 2.58 41.5314C1.98 36.3714 1.86 31.1514 1.86 25.9914C1.86 20.4714 0.6 6.79136 5.1 2.95136C6.96 1.39136 10.2 1.27136 12.48 1.21136C21.06 0.851357 31.2 3.61136 33.6 13.0314C34.02 14.6514 33.96 16.2714 33.66 17.8914C32.64 23.1714 29.64 27.1914 24.96 29.8314C27.6 31.5114 30 33.4914 32.76 34.9914C33.36 35.3514 35.16 36.0714 35.52 36.5514C36.42 37.7514 31.26 46.2714 29.76 46.4514C28.86 46.5714 26.52 45.3114 25.62 44.8914C21.3 42.7914 17.34 39.9714 14.04 36.4914ZM12.66 23.4114C15.06 22.2714 18.18 21.9114 20.1 19.9314C24.36 15.5514 17.76 10.8714 13.74 13.5114C12.3 14.4714 12.54 21.6714 12.66 23.4114Z" fill="#6A9032"/>
</svg>
