<svg width="32" height="32" viewBox="0 0 32 32" fill="none" xmlns="http://www.w3.org/2000/svg">
<path d="M0.702832 11.6812C0.600553 10.5123 1.52185 9.50684 2.69522 9.50684H29.8299C31.0033 9.50684 31.9246 10.5123 31.8223 11.6812L30.2036 30.1812C30.1132 31.2142 29.2482 32.0068 28.2112 32.0068H4.31397C3.27697 32.0068 2.41197 31.2142 2.32158 30.1812L0.702832 11.6812Z" fill="url(#paint0_linear_962_3218)"/>
<path fill-rule="evenodd" clip-rule="evenodd" d="M3.78654 12.5068L5.23029 29.0068H27.2949L28.7386 12.5068H3.78654ZM2.69522 9.50684C1.52185 9.50684 0.600553 10.5123 0.702832 11.6812L2.32158 30.1812C2.41197 31.2142 3.27697 32.0068 4.31397 32.0068H28.2112C29.2482 32.0068 30.1132 31.2142 30.2036 30.1812L31.8223 11.6812C31.9246 10.5123 31.0033 9.50684 29.8299 9.50684H2.69522Z" fill="#1F1F1F"/>
<path fill-rule="evenodd" clip-rule="evenodd" d="M21.5126 9.50684V8.75684C21.5126 5.85734 19.1621 3.50684 16.2626 3.50684C13.3631 3.50684 11.0126 5.85734 11.0126 8.75684V9.50684H8.01258V8.75684C8.01258 4.20049 11.7062 0.506836 16.2626 0.506836C20.8189 0.506836 24.5126 4.20049 24.5126 8.75684V9.50684H21.5126Z" fill="#1F1F1F"/>
<defs>
<linearGradient id="paint0_linear_962_3218" x1="0.19754" y1="2.86933" x2="36.5451" y2="13.1322" gradientUnits="userSpaceOnUse">
<stop stop-color="white"/>
<stop offset="0.882252" stop-color="#F5FFCE"/>
</linearGradient>
</defs>
</svg>
