<svg width="38" height="31" viewBox="0 0 38 31" fill="none" xmlns="http://www.w3.org/2000/svg">
<path d="M29.7855 12.6107L29.7882 12.6086C30.6089 11.9844 31.5161 11.4429 32.8541 11.4429C35.2629 11.4429 37.0749 13.2641 37.0749 15.7483C37.0749 18.2213 35.262 20.0538 32.8541 20.0538C31.5203 20.0538 30.6143 19.5042 29.7889 18.8886C29.5434 18.6978 29.1904 18.5643 28.8433 18.7282C28.4979 18.8913 28.3818 19.2442 28.3818 19.5275V26.1922C28.3818 27.502 28.0192 28.437 27.3969 29.0467C26.7729 29.6581 25.8142 30.0147 24.4747 30.0147H4.89095C3.56683 30.0147 2.6218 29.6539 2.00642 29.036C1.3907 28.4177 1.03229 27.4691 1.03229 26.1439V19.3705C1.03229 18.6809 1.52045 18.2406 2.15019 18.2406C2.47137 18.2406 2.8621 18.3806 3.25994 18.7478L3.26014 18.748C4.0495 19.4757 5.07709 20.4017 6.99181 20.4017C9.64198 20.4017 11.6573 18.3471 11.6573 15.6638C11.6573 12.9825 9.64385 10.9138 6.99181 10.9138C5.07709 10.9138 4.04951 11.8398 3.26015 12.5675L3.25992 12.5677C2.86208 12.9349 2.47136 13.075 2.15019 13.075C1.52046 13.075 1.03229 12.6347 1.03229 11.9451V5.1354C1.03229 3.8102 1.3907 2.86161 2.00642 2.24337C2.6218 1.62546 3.56683 1.26465 4.89095 1.26465H24.4747C25.8142 1.26465 26.7729 1.62127 27.3969 2.2326C28.0192 2.84234 28.3818 3.77727 28.3818 5.08709V11.9571C28.3818 12.2425 28.4989 12.5905 28.8382 12.7554C29.1812 12.9222 29.5357 12.798 29.7855 12.6107Z" fill="url(#paint0_linear_966_3224)" stroke="url(#paint1_linear_966_3224)"/>
<defs>
<linearGradient id="paint0_linear_966_3224" x1="19.0536" y1="0.764648" x2="19.0536" y2="30.5147" gradientUnits="userSpaceOnUse">
<stop stop-color="white"/>
<stop offset="1" stop-color="#F5FFCE"/>
</linearGradient>
<linearGradient id="paint1_linear_966_3224" x1="19.0536" y1="0.764648" x2="19.0536" y2="30.5147" gradientUnits="userSpaceOnUse">
<stop stop-color="#96D35D"/>
<stop offset="1" stop-color="#6A9032"/>
</linearGradient>
</defs>
</svg>
