<svg width="371" height="139" viewBox="0 0 371 139" fill="none" xmlns="http://www.w3.org/2000/svg">
<path d="M370.5 12.0072V127.267C370.5 133.267 365.63 138.137 359.63 138.137H11.37C5.37 138.137 0.5 133.267 0.5 127.267V12.0072C0.5 6.0072 5.37 1.13721 11.37 1.13721H172.12C174.27 1.13721 176.02 2.88717 176.02 5.03717C176.02 6.34717 175.37 7.58717 174.26 8.28717C171.95 9.75717 170.55 11.6972 170.55 13.8272C170.55 18.4172 177.1 22.1372 185.18 22.1372C193.26 22.1372 199.8 18.4172 199.8 13.8272C199.8 11.6972 198.4 9.75717 196.1 8.28717C195 7.58717 194.34 6.34717 194.34 5.03717C194.34 2.87717 196.09 1.13721 198.24 1.13721H359.63C365.63 1.13721 370.5 6.0072 370.5 12.0072Z" fill="white" stroke="#DEDEDE" stroke-linecap="round" stroke-linejoin="round" stroke-dasharray="6 6"/>
<path d="M121.842 78.4186V82.9362H112.719V84.5182H122.193V86.0826H110.75V81.4596H119.838V80.0006H110.715V78.4186H121.842ZM123.529 87.4362V89.0006H117.219V93.7819H115.268V89.0006H109.01V87.4362H123.529ZM137.82 77.8912V89.651H135.852V77.8912H137.82ZM138.26 91.8658V93.4479H127.309V88.6139H129.277V91.8658H138.26ZM133.145 79.1041V80.6686H127.449V82.4088H132.688V83.9205H127.449V85.6959C130.42 85.6959 132.23 85.652 134.322 85.3092L134.516 86.8209C132.23 87.2252 130.244 87.278 126.816 87.278H125.463V79.1041H133.145ZM147.365 78.1198C150.986 78.1198 153.078 79.0865 153.096 80.8444C153.078 82.6198 150.986 83.569 147.365 83.5865C143.744 83.569 141.635 82.6198 141.635 80.8444C141.635 79.0865 143.744 78.1198 147.365 78.1198ZM147.365 79.5612C144.939 79.5612 143.674 80.0182 143.691 80.8444C143.674 81.7233 144.939 82.1276 147.365 82.1276C149.826 82.1276 151.074 81.7233 151.074 80.8444C151.074 80.0182 149.826 79.5612 147.365 79.5612ZM154.625 84.4303V85.9948H140.141V84.4303H154.625ZM152.814 87.067V90.9518H143.779V92.1295H153.254V93.6237H141.863V89.5631H150.898V88.5084H141.846V87.067H152.814ZM174.471 85.2389V86.8385H159.969V85.2389H174.471ZM172.801 82.4264V83.9908H161.744V78.3834H172.713V79.9655H163.695V82.4264H172.801ZM167.193 87.9459C170.621 87.9283 172.678 88.983 172.695 90.8287C172.678 92.692 170.621 93.7467 167.193 93.7467C163.73 93.7467 161.656 92.692 161.656 90.8287C161.656 88.983 163.73 87.9283 167.193 87.9459ZM167.193 89.4401C164.873 89.4401 163.625 89.9323 163.643 90.8287C163.625 91.7604 164.873 92.235 167.193 92.235C169.461 92.235 170.727 91.7604 170.744 90.8287C170.727 89.9323 169.461 89.4401 167.193 89.4401ZM190.027 86.4694V88.0514H175.508V86.4694H181.801V85.151H177.354V80.9323H186.283V79.7545H177.301V78.2252H188.234V82.3561H179.287V83.6217H188.551V85.151H183.734V86.4694H190.027ZM188.322 89.0533V93.6588H186.354V90.6002H177.125V89.0533H188.322ZM198.834 80.4049V81.9694H191.047V80.4049H194V78.3307H195.934V80.4049H198.834ZM194.967 82.8131C196.988 82.8131 198.43 84.3424 198.43 86.5045C198.43 88.7018 196.988 90.2487 194.967 90.2487C192.963 90.2487 191.486 88.7018 191.504 86.5045C191.486 84.3424 192.963 82.8131 194.967 82.8131ZM194.967 84.4303C193.93 84.4303 193.209 85.2565 193.227 86.5045C193.209 87.7877 193.93 88.5963 194.967 88.5787C195.986 88.5963 196.707 87.7877 196.707 86.5045C196.707 85.2565 195.986 84.4303 194.967 84.4303ZM204.74 77.8737V93.7643H202.877V85.9948H201.33V93.0436H199.502V78.2076H201.33V84.4127H202.877V77.8737H204.74ZM225.395 86.733V88.3151H219.084V93.7467H217.15V88.3151H210.91V86.733H225.395ZM224.059 78.7701V80.317H219.295C219.409 82.0573 221.501 83.7272 224.639 84.1315L223.936 85.6608C221.229 85.2828 219.119 84.0436 218.152 82.3209C217.186 84.0436 215.076 85.2828 212.404 85.6608L211.666 84.1315C214.786 83.7272 216.878 82.0573 217.027 80.317H212.246V78.7701H224.059ZM231.424 82.0397C231.424 84.6061 232.32 87.278 234.465 88.6315L233.393 90.1256C231.96 89.2643 231.028 87.7789 230.51 86.0299C229.93 87.9547 228.91 89.5807 227.416 90.4948L226.203 89.0358C228.506 87.6295 229.543 84.8346 229.543 82.1276V79.2799H231.424V82.0397ZM240.178 77.8737V93.7643H238.297V77.8737H240.178ZM236.873 78.1549V92.9908H235.027V84.9576H232.76V83.3405H235.027V78.1549H236.873ZM256.543 90.2311V91.8307H242.023V90.2311H245.381V86.2057C244.115 85.485 243.351 84.3512 243.359 82.9362C243.342 80.4049 245.838 78.735 249.248 78.735C252.676 78.735 255.172 80.4049 255.172 82.9362C255.172 84.3248 254.434 85.441 253.203 86.1705V90.2311H256.543ZM249.248 80.2819C246.875 80.2819 245.258 81.2838 245.275 82.9362C245.258 84.5709 246.875 85.5905 249.248 85.5905C251.621 85.5905 253.256 84.5709 253.256 82.9362C253.256 81.2838 251.621 80.2819 249.248 80.2819ZM247.314 90.2311H251.217V86.9088C250.61 87.0494 249.951 87.1198 249.248 87.1198C248.562 87.1198 247.912 87.0494 247.314 86.9264V90.2311ZM260.85 79.4733L260.656 88.4557H258.67L258.459 79.4733H260.85ZM259.672 92.3405C258.916 92.3405 258.301 91.7252 258.301 90.9694C258.301 90.2311 258.916 89.6158 259.672 89.6158C260.393 89.6158 261.025 90.2311 261.025 90.9694C261.025 91.7252 260.393 92.3405 259.672 92.3405Z" fill="#999999"/>
<g clip-path="url(#clip0_1224_3712)">
<path d="M175.041 53.2832C175.041 53.8008 175.48 54.2305 175.998 54.2305H184.367V62.5996C184.367 63.1172 184.797 63.5566 185.314 63.5566C185.842 63.5566 186.272 63.1172 186.272 62.5996V54.2305H194.641C195.158 54.2305 195.598 53.8008 195.598 53.2832C195.598 52.7559 195.158 52.3262 194.641 52.3262H186.272V43.957C186.272 43.4395 185.842 43 185.314 43C184.797 43 184.367 43.4395 184.367 43.957V52.3262H175.998C175.48 52.3262 175.041 52.7559 175.041 53.2832Z" fill="#999999"/>
</g>
<defs>
<clipPath id="clip0_1224_3712">
<rect width="20.918" height="20.5762" fill="white" transform="translate(175.041 43)"/>
</clipPath>
</defs>
</svg>
