<svg width="38" height="23" viewBox="0 0 38 23" fill="none" xmlns="http://www.w3.org/2000/svg">
<path fill-rule="evenodd" clip-rule="evenodd" d="M0.595886 2.50684C0.595886 1.40227 1.49132 0.506836 2.59589 0.506836H35.2625C36.3671 0.506836 37.2626 1.40227 37.2626 2.50684V8.91333C36.9758 8.81198 36.6673 8.75684 36.3458 8.75684C34.8271 8.75684 33.5958 9.98805 33.5958 11.5068C33.5958 13.0256 34.8271 14.2568 36.3458 14.2568C36.6673 14.2568 36.9758 14.2017 37.2626 14.1003V20.5068C37.2626 21.6114 36.3671 22.5068 35.2626 22.5068H2.59589C1.49132 22.5068 0.595886 21.6114 0.595886 20.5068V14.1004C0.882601 14.2017 1.19114 14.2568 1.51256 14.2568C3.03134 14.2568 4.26256 13.0256 4.26256 11.5068C4.26256 9.98805 3.03134 8.75684 1.51256 8.75684C1.19114 8.75684 0.882601 8.81198 0.595886 8.91332V2.50684Z" fill="url(#paint0_linear_962_3205)"/>
<path fill-rule="evenodd" clip-rule="evenodd" d="M3.59589 3.50684V6.14586C5.74169 6.98034 7.26256 9.06598 7.26256 11.5068C7.26256 13.9477 5.74169 16.0333 3.59589 16.8678V19.5068H34.2626V16.8678C32.1167 16.0334 30.5958 13.9477 30.5958 11.5068C30.5958 9.06597 32.1167 6.98032 34.2626 6.14585V3.50684H3.59589ZM35.4291 8.91333C34.3611 9.29086 33.5958 10.3095 33.5958 11.5068C33.5958 12.7042 34.3611 13.7228 35.4291 14.1003C35.7159 14.2017 36.0244 14.2568 36.3458 14.2568C36.6673 14.2568 36.9758 14.2017 37.2626 14.1003V20.5068C37.2626 21.6114 36.3671 22.5068 35.2626 22.5068H2.59589C1.49132 22.5068 0.595886 21.6114 0.595886 20.5068V14.1004C0.882601 14.2017 1.19114 14.2568 1.51256 14.2568C1.83397 14.2568 2.14251 14.2017 2.42923 14.1004C3.49732 13.7228 4.26256 12.7042 4.26256 11.5068C4.26256 10.3095 3.49732 9.29084 2.42923 8.91332C2.14251 8.81198 1.83397 8.75684 1.51256 8.75684C1.19114 8.75684 0.882601 8.81198 0.595886 8.91332V2.50684C0.595886 1.40227 1.49132 0.506836 2.59589 0.506836H35.2625C36.3671 0.506836 37.2626 1.40227 37.2626 2.50684V8.91333C36.9758 8.81198 36.6673 8.75684 36.3458 8.75684C36.0244 8.75684 35.7159 8.81198 35.4291 8.91333Z" fill="#1F1F1F"/>
<path fill-rule="evenodd" clip-rule="evenodd" d="M20.7625 21.5068V1.50684L23.7625 1.50684V21.5068H20.7625Z" fill="#1F1F1F"/>
<defs>
<linearGradient id="paint0_linear_962_3205" x1="0.229175" y1="2.15684" x2="37.6292" y2="19.7568" gradientUnits="userSpaceOnUse">
<stop stop-color="white"/>
<stop offset="0.882252" stop-color="#F5FFCE"/>
</linearGradient>
</defs>
</svg>
